<?xml version="1.0" standalone="no"?>
<!DOCTYPE svg PUBLIC "-//W3C//DTD SVG 20010904//EN"
 "http://www.w3.org/TR/2001/REC-SVG-20010904/DTD/svg10.dtd">
<svg version="1.0" xmlns="http://www.w3.org/2000/svg"
 width="3508.000000pt" height="552.000000pt" viewBox="0 0 3508.000000 552.000000"
 preserveAspectRatio="xMidYMid meet">

<g transform="translate(0.000000,552.000000) scale(0.100000,-0.100000)"
fill="#000000" stroke="none">
<path d="M5858 4881 c-92 -15 -169 -29 -171 -31 -3 -3 0 -52 6 -110 7 -65 11
-371 12 -798 l0 -692 180 2 180 3 -2 50 c-2 28 -5 399 -8 825 -4 605 -8 775
-18 777 -6 1 -87 -11 -179 -26z"/>
<path d="M10615 4884 c-213 -34 -198 -28 -191 -72 17 -105 27 -467 27 -985 l0
-577 182 2 182 3 -1 50 c0 28 -4 204 -9 391 l-8 342 39 25 c80 53 172 53 213
0 40 -50 44 -86 48 -455 l5 -358 173 0 c96 0 176 3 179 8 2 4 1 196 -4 427 -9
428 -15 488 -53 561 -20 38 -80 92 -122 110 -97 40 -246 22 -385 -48 -47 -24
-89 -45 -93 -47 -5 -2 -8 142 -6 320 3 280 1 324 -11 326 -8 0 -82 -10 -165
-23z"/>
<path d="M15388 4881 c-92 -15 -169 -29 -171 -31 -3 -3 0 -52 6 -110 7 -65 11
-371 12 -798 l0 -692 180 2 180 3 -2 50 c-2 28 -5 399 -8 825 -4 605 -8 775
-18 777 -6 1 -87 -11 -179 -26z"/>
<path d="M15948 4881 c-92 -15 -169 -29 -171 -31 -3 -3 0 -52 6 -110 7 -65 11
-371 12 -798 l0 -692 180 2 180 3 -2 50 c-2 28 -5 399 -8 825 -4 605 -8 775
-18 777 -6 1 -87 -11 -179 -26z"/>
<path d="M21810 4889 c-66 -13 -144 -55 -181 -96 -62 -71 -73 -112 -79 -283
l-5 -155 -72 -3 -71 -3 -7 -63 c-4 -35 -8 -88 -9 -117 l-1 -54 84 4 84 3 -6
-436 -6 -436 182 2 182 3 -1 55 c-1 30 -5 225 -9 433 l-8 378 85 -7 c50 -4 88
-3 91 3 3 5 9 59 13 121 l7 112 -98 0 -97 0 4 103 c3 72 9 112 22 135 23 44
75 66 138 59 l47 -6 5 42 c4 23 7 80 9 127 l2 85 -130 2 c-71 0 -150 -3 -175
-8z"/>
<path d="M11821 4856 l-165 -21 3 -150 c1 -82 4 -152 7 -154 2 -2 79 7 171 20
l168 24 3 153 c2 118 0 152 -10 151 -7 -1 -87 -11 -177 -23z"/>
<path d="M26391 4856 l-165 -21 3 -150 c1 -82 4 -152 7 -154 2 -2 79 7 171 20
l168 24 3 153 c2 118 0 152 -10 151 -7 -1 -87 -11 -177 -23z"/>
<path d="M31171 4856 l-165 -21 3 -150 c1 -82 4 -152 7 -154 2 -2 79 7 171 20
l168 24 3 153 c2 118 0 152 -10 151 -7 -1 -87 -11 -177 -23z"/>
<path d="M13355 4740 c-162 -26 -279 -83 -382 -187 -199 -200 -269 -576 -164
-874 39 -110 85 -180 172 -264 87 -83 179 -133 304 -166 116 -31 317 -31 438
-1 119 29 145 44 151 85 9 57 15 287 8 287 -4 0 -32 -16 -62 -36 -151 -96
-359 -102 -492 -14 -120 79 -183 224 -182 415 0 220 78 376 221 447 125 61
314 48 432 -31 25 -17 48 -28 52 -25 4 2 10 61 14 131 3 71 9 136 11 145 6 22
-14 30 -145 64 -107 27 -282 38 -376 24z"/>
<path d="M1772 4703 c-5 -10 -42 -121 -82 -248 -40 -126 -146 -444 -236 -706
-90 -262 -164 -482 -164 -488 0 -16 326 -15 336 1 4 7 31 96 58 198 l51 185
223 3 c203 2 223 1 229 -15 4 -9 25 -98 48 -197 l42 -181 183 -3 c101 -1 187
1 192 6 5 5 -54 229 -131 503 -120 423 -261 940 -261 955 0 2 -108 4 -240 4
-218 0 -240 -2 -248 -17z m287 -520 c34 -144 61 -269 61 -277 0 -14 -21 -16
-155 -16 -85 0 -155 4 -155 9 0 7 135 467 162 551 15 47 15 48 87 -267z"/>
<path d="M6943 4568 c14 -326 19 -814 9 -880 -15 -98 -37 -137 -90 -160 -41
-19 -75 -20 -132 -7 -13 3 -15 -17 -18 -133 l-3 -136 58 -8 c78 -9 236 2 303
21 110 33 182 96 224 199 20 50 21 67 24 654 l3 602 -192 0 -192 0 6 -152z"/>
<path d="M22766 4712 c-2 -4 0 -111 6 -237 6 -130 8 -446 4 -728 l-5 -497 467
2 467 3 8 129 c4 72 4 133 0 137 -5 4 -133 3 -286 -3 -153 -5 -280 -8 -283 -6
-2 3 -5 88 -7 189 l-2 184 250 5 250 5 6 115 c3 63 4 119 1 124 -2 4 -118 5
-259 1 l-253 -7 2 168 3 169 270 0 270 0 6 65 c4 36 7 93 8 128 l1 62 -459 0
c-253 0 -462 -3 -465 -8z"/>
<path d="M9945 4668 c-77 -22 -146 -41 -153 -44 -11 -3 -12 -31 -6 -139 l7
-135 -66 0 -65 0 -7 -77 c-4 -43 -7 -96 -8 -117 l-2 -40 68 0 69 -1 -1 -325
c-2 -373 2 -402 70 -475 69 -74 192 -99 374 -75 114 15 109 9 120 154 7 95 7
99 -11 91 -11 -4 -47 -10 -80 -13 -57 -4 -64 -2 -95 26 l-34 30 -3 297 -3 296
99 -7 99 -7 6 34 c3 19 9 73 13 122 l6 87 -112 0 -112 0 7 180 7 180 -23 -1
c-13 -1 -87 -19 -164 -41z"/>
<path d="M2897 4350 c-87 -15 -160 -30 -163 -32 -2 -3 1 -45 7 -94 5 -49 13
-288 16 -532 l6 -442 181 2 181 3 -1 50 c0 28 -4 206 -9 397 l-8 346 53 27
c97 49 172 32 207 -48 16 -38 18 -79 21 -409 l3 -368 174 0 c96 0 176 3 178 8
3 4 0 184 -5 401 l-11 395 23 18 c63 51 173 54 217 6 45 -50 48 -81 46 -465
l-2 -363 179 0 c98 0 180 3 183 8 2 4 0 203 -3 442 -8 492 -10 508 -81 585
-59 64 -124 89 -234 89 -110 1 -200 -25 -298 -84 l-67 -41 -48 49 c-59 60
-104 77 -207 76 -97 0 -159 -20 -252 -79 l-68 -44 -5 62 c-6 76 3 75 -213 37z"/>
<path d="M8965 4369 c-146 -12 -247 -54 -333 -141 -103 -103 -142 -223 -142
-433 0 -386 170 -564 538 -565 298 0 465 107 539 345 14 48 18 93 18 230 0
160 -2 175 -28 249 -58 165 -165 266 -319 300 -79 18 -170 23 -273 15z m156
-225 c40 -20 77 -69 93 -125 36 -120 29 -364 -13 -462 -40 -92 -134 -137 -217
-102 -53 22 -79 48 -104 106 -46 109 -45 388 3 492 45 100 145 138 238 91z"/>
<path d="M11812 4350 c-84 -15 -155 -30 -158 -33 -3 -3 0 -74 7 -159 8 -105
10 -271 6 -531 l-6 -377 187 2 187 3 -3 40 c-1 22 -4 274 -7 560 l-4 520 -28
2 c-15 0 -97 -11 -181 -27z"/>
<path d="M14445 4369 c-146 -12 -247 -54 -333 -141 -103 -103 -142 -223 -142
-433 0 -386 170 -564 538 -565 298 0 465 107 539 345 14 48 18 93 18 230 0
160 -2 175 -28 249 -58 165 -165 266 -319 300 -79 18 -170 23 -273 15z m156
-225 c40 -20 77 -69 93 -125 36 -120 29 -364 -13 -462 -40 -92 -134 -137 -217
-102 -53 22 -79 48 -104 106 -46 109 -45 388 3 492 45 100 145 138 238 91z"/>
<path d="M16734 4365 c-184 -33 -319 -150 -382 -330 -33 -94 -41 -285 -18
-395 42 -197 161 -325 362 -387 48 -14 92 -18 229 -18 157 1 176 3 250 28 44
14 88 32 97 39 14 10 18 38 24 136 l7 122 -64 -30 c-103 -47 -179 -63 -293
-58 -88 3 -108 7 -154 32 -75 42 -130 123 -132 194 l0 22 228 0 c125 0 278 3
340 7 l112 6 0 77 c0 243 -91 439 -237 513 -58 30 -182 57 -250 56 -26 0 -80
-7 -119 -14z m169 -219 c60 -25 107 -102 107 -177 l0 -26 -127 -6 c-71 -4
-149 -7 -175 -7 -47 0 -48 0 -48 33 0 37 39 125 66 149 54 47 117 60 177 34z"/>
<path d="M18944 4365 c-184 -33 -319 -150 -382 -330 -33 -94 -41 -285 -18
-395 42 -197 161 -325 362 -387 48 -14 92 -18 229 -18 157 1 176 3 250 28 44
14 88 32 97 39 14 10 18 38 24 136 l7 122 -64 -30 c-103 -47 -179 -63 -293
-58 -88 3 -108 7 -154 32 -75 42 -130 123 -132 194 l0 22 228 0 c125 0 278 3
340 7 l112 6 0 77 c0 243 -91 439 -237 513 -58 30 -182 57 -250 56 -26 0 -80
-7 -119 -14z m169 -219 c60 -25 107 -102 107 -177 l0 -26 -127 -6 c-71 -4
-149 -7 -175 -7 -47 0 -48 0 -48 33 0 37 39 125 66 149 54 47 117 60 177 34z"/>
<path d="M20705 4369 c-146 -12 -247 -54 -333 -141 -103 -103 -142 -223 -142
-433 0 -386 170 -564 538 -565 298 0 465 107 539 345 14 48 18 93 18 230 0
160 -2 175 -28 249 -58 165 -165 266 -319 300 -79 18 -170 23 -273 15z m156
-225 c40 -20 77 -69 93 -125 36 -120 29 -364 -13 -462 -40 -92 -134 -137 -217
-102 -53 22 -79 48 -104 106 -46 109 -45 388 3 492 45 100 145 138 238 91z"/>
<path d="M24125 4365 c-33 -8 -102 -19 -153 -26 -51 -7 -96 -17 -101 -23 -4
-6 -4 -42 1 -81 4 -38 11 -276 14 -528 l6 -457 182 2 181 3 -1 30 c-1 17 -5
193 -9 391 l-8 362 39 25 c114 73 194 57 241 -48 16 -35 18 -81 21 -403 l4
-362 176 2 177 3 -3 355 c-5 545 -16 618 -108 699 -105 93 -273 91 -452 -4
-47 -25 -86 -45 -88 -45 -2 0 -4 27 -4 60 0 59 0 60 -27 59 -16 -1 -55 -7 -88
-14z"/>
<path d="M26382 4350 c-84 -15 -155 -30 -158 -33 -3 -3 0 -74 7 -159 8 -105
10 -271 6 -531 l-6 -377 187 2 187 3 -3 40 c-1 22 -4 274 -7 560 l-4 520 -28
2 c-15 0 -97 -11 -181 -27z"/>
<path d="M27035 4365 c-33 -8 -102 -19 -153 -26 -51 -7 -96 -17 -101 -23 -4
-6 -4 -42 1 -81 4 -38 11 -276 14 -528 l6 -457 182 2 181 3 -1 30 c-1 17 -5
193 -9 391 l-8 362 39 25 c114 73 194 57 241 -48 16 -35 18 -81 21 -403 l4
-362 176 2 177 3 -3 355 c-5 545 -16 618 -108 699 -105 93 -273 91 -452 -4
-47 -25 -86 -45 -88 -45 -2 0 -4 27 -4 60 0 59 0 60 -27 59 -16 -1 -55 -7 -88
-14z"/>
<path d="M28384 4365 c-184 -33 -319 -150 -382 -330 -33 -94 -41 -285 -18
-395 42 -197 161 -325 362 -387 48 -14 92 -18 229 -18 157 1 176 3 250 28 44
14 88 32 97 39 14 10 18 38 24 136 l7 122 -64 -30 c-103 -47 -179 -63 -293
-58 -88 3 -108 7 -154 32 -75 42 -130 123 -132 194 l0 22 228 0 c125 0 278 3
340 7 l112 6 0 77 c0 243 -91 439 -237 513 -58 30 -182 57 -250 56 -26 0 -80
-7 -119 -14z m169 -219 c60 -25 107 -102 107 -177 l0 -26 -127 -6 c-71 -4
-149 -7 -175 -7 -47 0 -48 0 -48 33 0 37 39 125 66 149 54 47 117 60 177 34z"/>
<path d="M29514 4365 c-184 -33 -319 -150 -382 -330 -33 -94 -41 -285 -18
-395 42 -197 161 -325 362 -387 48 -14 92 -18 229 -18 157 1 176 3 250 28 44
14 88 32 97 39 14 10 18 38 24 136 l7 122 -64 -30 c-103 -47 -179 -63 -293
-58 -88 3 -108 7 -154 32 -75 42 -130 123 -132 194 l0 22 228 0 c125 0 278 3
340 7 l112 6 0 77 c0 243 -91 439 -237 513 -58 30 -182 57 -250 56 -26 0 -80
-7 -119 -14z m169 -219 c60 -25 107 -102 107 -177 l0 -26 -127 -6 c-71 -4
-149 -7 -175 -7 -47 0 -48 0 -48 33 0 37 39 125 66 149 54 47 117 60 177 34z"/>
<path d="M30568 4375 c-2 -3 -68 -16 -145 -29 -78 -13 -145 -26 -150 -29 -4
-3 -5 -47 -1 -99 3 -51 7 -290 7 -531 l1 -437 183 2 182 3 -1 45 c-1 25 -5
171 -9 325 -9 296 -6 326 36 379 31 39 91 52 146 31 25 -10 48 -13 52 -9 12
14 63 332 55 345 -4 8 -25 10 -62 6 -77 -8 -137 -48 -189 -126 l-43 -63 0 96
0 96 -28 0 c-16 0 -31 -2 -34 -5z"/>
<path d="M31162 4350 c-84 -15 -155 -30 -158 -33 -3 -3 0 -74 7 -159 8 -105
10 -271 6 -531 l-6 -377 187 2 187 3 -3 40 c-1 22 -4 274 -7 560 l-4 520 -28
2 c-15 0 -97 -11 -181 -27z"/>
<path d="M31815 4365 c-33 -8 -102 -19 -153 -26 -51 -7 -96 -17 -101 -23 -4
-6 -4 -42 1 -81 4 -38 11 -276 14 -528 l6 -457 182 2 181 3 -1 30 c-1 17 -5
193 -9 391 l-8 362 39 25 c114 73 194 57 241 -48 16 -35 18 -81 21 -403 l4
-362 176 2 177 3 -3 355 c-5 545 -16 618 -108 699 -105 93 -273 91 -452 -4
-47 -25 -86 -45 -88 -45 -2 0 -4 27 -4 60 0 59 0 60 -27 59 -16 -1 -55 -7 -88
-14z"/>
<path d="M4815 4350 c-49 -11 -108 -26 -130 -33 l-40 -14 -8 -117 c-5 -65 -6
-120 -3 -123 3 -3 38 6 78 21 108 38 194 56 279 56 93 0 137 -23 157 -84 7
-22 11 -41 9 -43 -3 -2 -51 -11 -108 -19 -363 -53 -520 -164 -536 -380 -12
-151 64 -287 195 -351 52 -26 67 -28 167 -28 118 0 169 15 241 70 18 14 35 25
38 25 3 0 6 -17 8 -37 l3 -38 171 -3 171 -2 -4 307 c-7 623 -7 628 -93 714
-76 76 -131 92 -335 95 -140 3 -186 0 -260 -16z m345 -685 l0 -125 -48 -24
c-72 -37 -130 -42 -185 -18 -104 46 -102 175 3 236 40 24 150 55 198 55 l32 1
0 -125z"/>
<path d="M7537 4350 c-75 -4 -140 -9 -142 -12 -3 -3 24 -86 61 -184 90 -246
204 -565 274 -770 l58 -170 -48 -120 c-26 -65 -71 -170 -99 -232 -28 -63 -51
-116 -51 -118 0 -3 77 -3 172 -2 l172 3 54 200 c69 259 167 550 341 1014 78
206 141 380 141 388 0 11 -24 13 -142 8 -79 -4 -148 -8 -154 -10 -7 -2 -17
-27 -24 -57 -11 -46 -161 -559 -175 -597 -3 -8 -8 -12 -10 -9 -6 6 -80 275
-176 641 l-10 37 -52 -2 c-29 0 -114 -4 -190 -8z"/>
<path d="M18095 4350 c-353 -7 -366 -9 -468 -63 -115 -60 -178 -161 -185 -294
-5 -97 13 -166 61 -229 28 -37 47 -53 112 -99 22 -16 29 2 -78 -198 l-42 -79
28 -23 c15 -13 35 -28 44 -34 16 -8 10 -17 -43 -73 -75 -78 -98 -133 -92 -220
5 -77 29 -130 84 -185 87 -86 188 -117 389 -117 214 0 339 39 444 138 73 70
103 132 109 227 8 143 -40 235 -155 297 -59 31 -170 65 -253 77 -25 4 -80 16
-122 27 -83 21 -90 30 -65 76 12 20 23 23 91 27 138 8 235 45 319 123 72 68
97 126 97 233 0 71 -4 94 -24 133 l-24 48 76 -4 77 -3 7 100 c4 55 6 106 3
113 -2 6 -17 11 -32 10 -15 -1 -176 -5 -358 -8z m-118 -210 c49 -30 67 -73 68
-160 0 -92 -23 -144 -78 -173 -127 -66 -247 117 -177 270 34 76 119 105 187
63z m-42 -955 c153 -42 190 -68 190 -133 0 -81 -57 -123 -175 -129 -67 -4 -81
-2 -129 24 -70 36 -94 77 -88 150 3 51 40 123 62 123 6 0 69 -16 140 -35z"/>
<path d="M25705 4350 c-353 -7 -366 -9 -468 -63 -115 -60 -178 -161 -185 -294
-5 -97 13 -166 61 -229 28 -37 47 -53 112 -99 22 -16 29 2 -78 -198 l-42 -79
28 -23 c15 -13 35 -28 44 -34 16 -8 10 -17 -43 -73 -75 -78 -98 -133 -92 -220
5 -77 29 -130 84 -185 87 -86 188 -117 389 -117 214 0 339 39 444 138 73 70
103 132 109 227 8 143 -40 235 -155 297 -59 31 -170 65 -253 77 -25 4 -80 16
-122 27 -83 21 -90 30 -65 76 12 20 23 23 91 27 138 8 235 45 319 123 72 68
97 126 97 233 0 71 -4 94 -24 133 l-24 48 76 -4 77 -3 7 100 c4 55 6 106 3
113 -2 6 -17 11 -32 10 -15 -1 -176 -5 -358 -8z m-118 -210 c49 -30 67 -73 68
-160 0 -92 -23 -144 -78 -173 -127 -66 -247 117 -177 270 34 76 119 105 187
63z m-42 -955 c153 -42 190 -68 190 -133 0 -81 -57 -123 -175 -129 -67 -4 -81
-2 -129 24 -70 36 -94 77 -88 150 3 51 40 123 62 123 6 0 69 -16 140 -35z"/>
<path d="M33395 4350 c-353 -7 -366 -9 -468 -63 -115 -60 -178 -161 -185 -294
-5 -97 13 -166 61 -229 28 -37 47 -53 112 -99 22 -16 29 2 -78 -198 l-42 -79
28 -23 c15 -13 35 -28 44 -34 16 -8 10 -17 -43 -73 -75 -78 -98 -133 -92 -220
5 -77 29 -130 84 -185 87 -86 188 -117 389 -117 214 0 339 39 444 138 73 70
103 132 109 227 8 143 -40 235 -155 297 -59 31 -170 65 -253 77 -25 4 -80 16
-122 27 -83 21 -90 30 -65 76 12 20 23 23 91 27 138 8 235 45 319 123 72 68
97 126 97 233 0 71 -4 94 -24 133 l-24 48 76 -4 77 -3 7 100 c4 55 6 106 3
113 -2 6 -17 11 -32 10 -15 -1 -176 -5 -358 -8z m-118 -210 c49 -30 67 -73 68
-160 0 -92 -23 -144 -78 -173 -127 -66 -247 117 -177 270 34 76 119 105 187
63z m-42 -955 c153 -42 190 -68 190 -133 0 -81 -57 -123 -175 -129 -67 -4 -81
-2 -129 24 -70 36 -94 77 -88 150 3 51 40 123 62 123 6 0 69 -16 140 -35z"/>
<path d="M9483 2387 l-101 -21 5 -257 6 -256 -154 -5 c-173 -6 -266 -28 -359
-88 -105 -68 -192 -191 -227 -323 -23 -86 -22 -262 1 -347 38 -139 136 -264
248 -315 143 -65 314 -53 439 30 21 14 41 25 45 25 3 0 4 -17 2 -38 l-3 -37
115 0 115 0 -5 120 c-6 147 -7 1092 -1 1345 4 155 2 185 -10 186 -8 1 -60 -7
-116 -19z m-95 -1036 c3 -385 10 -357 -101 -407 -86 -39 -189 -40 -263 -1
-118 60 -170 174 -162 350 8 165 68 279 177 340 74 42 140 56 251 54 l95 -2 3
-334z"/>
<path d="M18445 2386 c-97 -19 -110 -24 -107 -41 5 -37 21 -948 17 -955 -3 -4
-5 -148 -5 -321 l-1 -314 73 -3 c40 -2 91 -1 114 3 l41 6 -5 402 -4 402 51 33
c79 51 140 74 211 79 90 7 143 -21 185 -98 l30 -54 3 -387 3 -388 77 0 c42 0
94 3 114 6 l37 6 -5 117 c-3 64 -9 260 -12 436 l-7 320 -28 57 c-52 105 -147
158 -285 158 -102 0 -177 -20 -285 -75 l-89 -45 3 337 c1 200 -1 338 -7 339
-5 1 -58 -8 -119 -20z"/>
<path d="M6125 2235 c-128 -24 -202 -61 -267 -133 -50 -55 -74 -105 -88 -182
-15 -85 -6 -161 31 -237 54 -112 153 -182 405 -288 190 -79 247 -129 260 -228
36 -260 -325 -354 -638 -166 -21 13 -41 20 -44 16 -12 -12 -24 -190 -14 -203
19 -22 194 -72 295 -84 231 -27 424 26 538 149 80 87 101 147 102 286 0 98 -3
116 -26 165 -51 109 -135 171 -371 274 -234 102 -282 133 -307 199 -24 64 -3
156 45 198 49 43 108 63 203 67 111 5 176 -7 289 -55 46 -19 85 -34 87 -32 10
11 20 191 10 198 -18 16 -158 50 -245 61 -107 13 -177 12 -265 -5z"/>
<path d="M1447 1488 l3 -733 117 0 118 0 -5 335 c-6 377 -6 462 -2 850 l3 275
-118 3 -118 3 2 -733z"/>
<path d="M1997 2213 c-2 -5 0 -100 5 -213 5 -113 7 -440 4 -727 l-5 -523 434
0 c296 0 436 3 440 11 4 6 9 46 12 90 l6 80 -332 -7 -331 -7 2 254 3 254 291
-4 291 -3 6 68 c4 38 7 79 7 92 l0 22 -300 0 -300 0 0 133 c0 74 3 175 6 225
l7 91 312 -6 313 -6 5 29 c3 16 7 56 9 89 l3 60 -442 3 c-243 1 -444 -1 -446
-5z"/>
<path d="M3087 2213 c-2 -5 0 -100 5 -213 5 -113 7 -440 4 -727 l-5 -523 434
0 c296 0 436 3 440 11 4 6 9 46 12 90 l6 80 -332 -7 -331 -7 2 254 3 254 291
-4 291 -3 6 68 c4 38 7 79 7 92 l0 22 -300 0 -300 0 0 133 c0 74 3 175 6 225
l7 91 312 -6 313 -6 5 29 c3 16 7 56 9 89 l3 60 -442 3 c-243 1 -444 -1 -446
-5z"/>
<path d="M4177 2213 c-2 -5 0 -100 5 -213 5 -113 7 -440 4 -727 l-5 -523 434
0 c296 0 436 3 440 11 4 6 9 46 12 90 l6 80 -332 -7 -331 -7 2 254 3 254 291
-4 291 -3 6 68 c4 38 7 79 7 92 l0 22 -300 0 -300 0 0 133 c0 74 3 175 6 225
l7 91 312 -6 313 -6 5 29 c3 16 7 56 9 89 l3 60 -442 3 c-243 1 -444 -1 -446
-5z"/>
<path d="M13325 1485 l0 -735 297 0 c332 0 411 9 514 60 78 38 154 113 190
187 24 48 29 73 32 154 5 123 -12 179 -75 249 -56 62 -117 95 -214 113 -54 11
-69 16 -54 22 158 60 228 129 261 257 29 113 0 229 -75 307 -104 107 -168 121
-571 121 l-305 0 0 -735z m572 560 c70 -21 113 -53 139 -105 62 -120 -1 -269
-134 -321 -46 -18 -85 -23 -204 -27 l-148 -4 0 229 c0 126 3 233 7 236 13 14
288 7 340 -8z m41 -642 c148 -37 219 -156 178 -297 -33 -112 -118 -170 -275
-187 -112 -11 -268 -12 -275 0 -4 5 -9 120 -13 255 l-6 245 94 3 c135 5 225
-1 297 -19z"/>
<path d="M7025 2121 l-100 -28 4 -131 3 -132 -76 0 -76 0 -2 -65 c-1 -36 -2
-73 -2 -82 -1 -16 8 -18 77 -15 l77 4 0 -362 c0 -230 4 -377 11 -405 14 -56
67 -118 118 -138 56 -23 154 -30 235 -18 37 5 69 11 71 13 1 2 6 37 10 79 l7
77 -84 -5 c-154 -10 -160 6 -156 447 l3 305 118 3 117 3 0 42 c0 23 3 59 6 80
l7 37 -122 0 -121 0 0 160 c0 122 -3 160 -12 159 -7 -1 -58 -13 -113 -28z"/>
<path d="M12245 2121 l-100 -28 4 -131 3 -132 -76 0 -76 0 -2 -65 c-1 -36 -2
-73 -2 -82 -1 -16 8 -18 77 -15 l77 4 0 -362 c0 -230 4 -377 11 -405 14 -56
67 -118 118 -138 56 -23 154 -30 235 -18 37 5 69 11 71 13 1 2 6 37 10 79 l7
77 -84 -5 c-154 -10 -160 6 -156 447 l3 305 118 3 117 3 0 42 c0 23 3 59 6 80
l7 37 -122 0 -121 0 0 160 c0 122 -3 160 -12 159 -7 -1 -58 -13 -113 -28z"/>
<path d="M10204 1846 c-187 -43 -322 -181 -369 -377 -20 -86 -20 -286 0 -364
25 -95 64 -165 129 -231 101 -100 222 -144 401 -144 114 0 213 19 290 54 l53
24 6 73 c4 41 9 86 12 102 7 34 -7 35 -49 3 -198 -148 -488 -120 -591 57 -27
46 -41 94 -51 175 l-7 52 371 0 371 0 0 75 c0 196 -67 354 -186 436 -96 65
-257 93 -380 65z m212 -160 c78 -36 126 -110 140 -214 l7 -52 -266 0 -266 0 6
33 c21 111 71 184 156 227 77 39 149 41 223 6z"/>
<path d="M15525 1850 c-89 -14 -218 -50 -231 -63 -13 -14 -26 -154 -15 -161 4
-3 54 11 111 31 88 30 119 36 195 37 73 1 98 -3 130 -20 47 -24 85 -89 85
-145 0 -43 -2 -44 -100 -55 -208 -22 -387 -89 -463 -174 -58 -64 -77 -121 -77
-226 0 -147 62 -255 178 -310 118 -56 300 -40 413 35 l44 30 3 -40 3 -41 104
4 c57 2 106 6 108 8 2 3 1 201 -2 441 l-6 435 -30 59 c-36 70 -93 118 -168
140 -65 20 -203 27 -282 15z m253 -883 c-13 -10 -48 -30 -78 -45 -66 -31 -175
-36 -225 -10 -125 67 -140 244 -26 326 48 35 119 58 248 81 l98 17 3 -175 c2
-172 2 -176 -20 -194z"/>
<path d="M17790 1849 c-167 -28 -317 -159 -376 -328 -100 -289 -12 -599 207
-724 84 -48 145 -62 269 -62 92 0 130 5 186 22 106 34 112 41 123 148 5 50 7
92 5 95 -3 2 -17 -4 -32 -14 -15 -9 -56 -32 -92 -49 -59 -29 -74 -32 -156 -32
-81 0 -97 3 -149 30 -67 34 -124 101 -151 175 -25 70 -30 243 -9 316 25 88 64
153 118 196 107 84 252 89 385 11 24 -14 46 -23 49 -20 2 3 8 40 12 84 10 92
8 95 -70 123 -107 37 -211 47 -319 29z"/>
<path d="M11055 1825 l-110 -21 1 -29 c1 -17 7 -149 14 -295 8 -165 10 -353 6
-499 l-7 -234 115 5 c64 2 117 6 119 9 2 2 0 69 -4 149 -4 80 -8 260 -8 400
l-1 255 51 34 c79 51 138 74 209 78 89 6 141 -21 184 -97 l31 -55 3 -389 3
-389 109 5 c61 2 112 6 114 9 2 2 0 112 -4 244 -5 132 -9 319 -9 416 -1 199
-12 252 -64 320 -17 23 -57 56 -87 73 -53 30 -60 31 -170 31 -131 0 -207 -20
-301 -80 -30 -19 -57 -35 -61 -35 -5 0 -8 24 -8 54 0 30 -3 57 -7 59 -5 2 -57
-6 -118 -18z"/>
<path d="M14925 1831 c-45 -20 -95 -72 -114 -119 -7 -18 -17 -32 -21 -32 -3 0
-5 36 -2 80 5 94 14 90 -133 61 l-90 -18 1 -59 c1 -32 3 -270 4 -527 l2 -468
116 3 117 3 -5 125 c-10 257 -5 583 9 625 21 62 56 101 107 121 40 15 53 16
91 5 25 -6 48 -10 50 -7 5 5 43 193 43 214 0 20 -127 15 -175 -7z"/>
<path d="M16355 1825 l-110 -21 1 -29 c1 -17 7 -149 14 -295 8 -165 10 -353 6
-499 l-7 -234 115 5 c64 2 117 6 119 9 2 2 0 69 -4 149 -4 80 -8 260 -8 400
l-1 255 51 34 c79 51 138 74 209 78 89 6 141 -21 184 -97 l31 -55 3 -389 3
-389 109 5 c61 2 112 6 114 9 2 2 0 112 -4 244 -5 132 -9 319 -9 416 -1 199
-12 252 -64 320 -17 23 -57 56 -87 73 -53 30 -60 31 -170 31 -131 0 -207 -20
-301 -80 -30 -19 -57 -35 -61 -35 -5 0 -8 24 -8 54 0 30 -3 57 -7 59 -5 2 -57
-6 -118 -18z"/>
<path d="M7607 1833 l-98 -4 6 -362 c4 -199 11 -393 16 -432 12 -91 57 -184
112 -230 118 -102 356 -99 520 5 26 16 50 30 52 30 3 0 5 -21 5 -46 l0 -46
104 4 c58 2 106 6 109 8 2 3 1 246 -1 541 l-4 537 -107 -5 c-58 -3 -109 -8
-112 -12 -4 -3 -3 -112 2 -241 5 -129 6 -313 3 -408 l-7 -173 -45 -31 c-69
-47 -133 -68 -210 -68 -120 1 -174 41 -207 155 -16 53 -17 100 -14 420 4 315
2 360 -11 360 -8 1 -59 -1 -113 -2z"/>
</g>
</svg>
