<?xml version="1.0" standalone="no"?>
<!DOCTYPE svg PUBLIC "-//W3C//DTD SVG 20010904//EN"
 "http://www.w3.org/TR/2001/REC-SVG-20010904/DTD/svg10.dtd">
<svg version="1.0" xmlns="http://www.w3.org/2000/svg"
 width="287.000000pt" height="84.000000pt" viewBox="0 0 287.000000 84.000000"
 preserveAspectRatio="xMidYMid meet">

<g transform="translate(0.000000,84.000000) scale(0.100000,-0.100000)"
fill="#000000" stroke="none">
<path d="M420 834 c-8 -3 -26 -21 -40 -41 -41 -62 -228 -250 -301 -304 -38
-28 -69 -58 -69 -67 0 -10 28 -37 62 -62 90 -65 226 -199 283 -279 33 -46 57
-70 70 -70 13 0 36 21 65 60 56 75 238 252 307 299 29 19 53 42 53 51 0 8 -28
35 -62 59 -86 61 -209 180 -285 278 -36 45 -65 81 -66 81 -1 -1 -9 -3 -17 -5z
m50 -121 c96 -65 270 -253 270 -292 0 -27 -51 -92 -139 -179 -99 -99 -153
-136 -183 -128 -33 8 -178 136 -242 213 -37 44 -56 76 -56 94 0 52 253 309
305 309 11 0 32 -8 45 -17z"/>
<path d="M360 667 c-87 -69 -220 -215 -220 -242 0 -39 132 -186 243 -269 34
-26 39 -27 70 -15 42 17 254 229 263 263 8 32 -35 93 -133 187 -90 87 -131
119 -151 119 -9 0 -42 -20 -72 -43z m98 -99 l21 -58 -20 0 c-19 0 -20 -5 -17
-62 3 -53 0 -63 -14 -66 -16 -3 -18 5 -18 62 0 54 -3 66 -16 66 -9 0 -14 6
-12 13 3 6 13 36 23 65 11 28 22 49 25 45 4 -5 16 -34 28 -65z m-105 -92 c17
-13 17 -15 -10 -28 -17 -8 -28 -21 -28 -33 0 -40 121 -54 213 -24 43 14 42 52
0 57 -17 2 -28 9 -28 19 0 19 41 11 70 -14 54 -47 3 -85 -119 -91 -174 -8
-267 53 -162 108 43 23 41 23 64 6z m97 -191 c0 -63 -1 -65 -25 -65 -24 0 -25
2 -25 65 0 63 1 65 25 65 24 0 25 -2 25 -65z"/>
<path d="M960 415 l0 -315 85 0 85 0 0 315 0 315 -85 0 -85 0 0 -315z"/>
<path d="M1230 415 l0 -315 240 0 240 0 0 60 0 60 -155 0 -155 0 0 65 0 65
140 0 140 0 0 65 0 65 -140 0 -140 0 0 65 0 65 155 0 155 0 0 60 0 60 -240 0
-240 0 0 -315z"/>
<path d="M1810 415 l0 -315 240 0 240 0 0 60 0 60 -155 0 -155 0 0 65 0 65
140 0 140 0 0 65 0 65 -140 0 -140 0 0 65 0 65 155 0 155 0 0 60 0 60 -240 0
-240 0 0 -315z"/>
<path d="M2380 415 l0 -315 240 0 240 0 0 60 0 60 -150 0 -150 0 0 65 0 65
140 0 140 0 0 65 0 65 -140 0 -140 0 0 65 0 65 150 0 150 0 0 60 0 60 -240 0
-240 0 0 -315z"/>
<path d="M543 74 c-3 -8 -1 -20 5 -26 8 -8 9 -4 5 13 l-6 24 21 -25 c19 -23
21 -23 27 -7 9 21 2 30 -26 34 -11 2 -22 -4 -26 -13z m44 -16 c-3 -8 -6 -5 -6
6 -1 11 2 17 5 13 3 -3 4 -12 1 -19z"/>
</g>
</svg>
